<svg xmlns="http://www.w3.org/2000/svg" viewBox="0 0 150 150"><style>@keyframes celebrate1-confetti{0%{transform:translate3d(0,-140px,0)}60%{transform:translate3d(0,160px,0) rotateX(60deg)}}@keyframes celebrate1-balloon{0%{transform:translate3d(0,140px,0)}90%{transform:translate3d(0,-200px,0)}}</style><g style="animation:celebrate1-balloon 4s .4s ease-in infinite;transform:translate3d(0,140px,0)"><path class="fillCls10" d="M21.553 88.216c10.23 0 18.523-8.293 18.523-18.523s-8.293-18.524-18.523-18.524S3.029 59.463 3.029 69.693s8.293 18.523 18.524 18.523z" fill="#FF98E1"/><path class="fillCls10" d="M22.433 128.878a.58.58 0 0 1-.258-.469l-.72-40.771a.581.581 0 0 1 .557-.585.581.581 0 0 1 .585.557l.72 40.771a.581.581 0 0 1-.558.585.546.546 0 0 1-.326-.088z" fill="#FF98E1"/><path class="fillCls10" d="m21.578 85.769-2.707 6.026 6.798-.158-4.09-5.868z" fill="#FF98E1"/><path class="fillCls11" d="M8.144 70.801a.572.572 0 0 1-.25-.285c-1.612-3.996 1.64-8.818 1.785-9.009a.582.582 0 0 1 .796-.145c.254.18.33.533.146.797-.03.052-3.044 4.516-1.66 7.94a.569.569 0 0 1-.315.748.66.66 0 0 1-.502-.046z" fill="#fff"/></g><g style="animation:celebrate1-balloon 4s .9s ease-in infinite;transform:translate3d(0,140px,0)"><path class="fillCls9" d="M128.756 84.196c-9.017 4.831-20.244 1.437-25.075-7.58-4.832-9.017-1.438-20.244 7.579-25.075 9.018-4.832 20.244-1.438 25.076 7.58 4.831 9.017 1.437 20.243-7.58 25.075z" fill="#00DA9F"/><path class="fillCls9" d="M118.909 127.05a.583.583 0 0 0 .258-.47l.67-40.771a.582.582 0 0 0-.558-.584.581.581 0 0 0-.584.557l-.67 40.772a.58.58 0 0 0 .884.496z" fill="#00DA9F"/><path class="fillCls9" d="m119.83 83.943 2.65 6.052-6.796-.222 4.146-5.83z" fill="#00DA9F"/><path class="fillCls11" d="M133.406 69.104a.573.573 0 0 0 .252-.283c1.65-3.98-1.555-8.833-1.698-9.025a.583.583 0 0 0-.796-.153.574.574 0 0 0-.153.796c.028.052 3.001 4.544 1.584 7.955a.569.569 0 0 0 .308.75.659.659 0 0 0 .503-.04z" fill="#fff"/></g><path class="fillCls7" d="m32.403 110.252-2.848 5.127 3.417 1.139 2.848-4.842-3.417-1.424z" fill="#FFDF57" style="animation:celebrate1-confetti 5s 400ms lienar infinite;transform:translate3d(0,-140px,0)"/><path class="fillCls6" d="m69.959 31.995-3.133 3.987-3.417-2.848 5.126-4.556 1.424 3.417z" fill="#853EF3" style="animation:celebrate1-confetti 5s 1200ms linear infinite;transform:translate3d(0,-140px,0)"/><path class="fillCls7" d="M13.339 40.741 11.06 45.88l5.127.57 1.139-5.423-3.987-.285z" fill="#FFDF57" style="animation:celebrate1-confetti 5s 2000ms linear infinite;transform:translate3d(0,-140px,0)"/><path class="fillCls6" d="m109.611 128.148 6.835 5.98 3.987-3.417-7.974-6.266-2.848 3.703z" fill="#853EF3" style="animation:celebrate1-confetti 5s 3200ms linear infinite;transform:translate3d(0,-140px,0)"/><path class="fillCls7" d="m91.656 34.416 5.98 5.126 3.134-1.709-5.696-5.41-3.418 1.993z" fill="#FFDF57" style="animation:celebrate1-confetti 5s 4400ms linear infinite;transform:translate3d(0,-140px,0)"/><path class="fillCls8" d="m82.947 17.109-5.164 3.733-2.704-1.244 4.918-3.94 2.95 1.45z" fill="#57DDEF" style="animation:celebrate1-confetti 5s 3600ms linear infinite;transform:translate3d(0,-140px,0)"/><path class="fillCls8" d="m106.36 35.676-.236 4.319-1.766-.218.027-4.411 1.975.31z" fill="#57DDEF" style="animation:celebrate1-confetti 5s 1600ms linear infinite;transform:translate3d(0,-140px,0)"/><path class="fillCls1" d="m44.025 77.598-6.913 2.866-19.22-39.368-4.384-7.292-9.99-12.898-.547-1.433 1.054-.506V17.07l.674-1.011 1.054.421.505-1.897h1.223l5.058 4.089-2.656-4.089v-2.15l1.94.549L21.6 23.94l-2.234-6.534.759-2.444 1.981.843L49.083 71.78l-5.058 5.817z" fill="#F7CCB9"/><path class="fillCls4" d="m100.26 101.723-1.186 35.836H49.65l-2.255-36.251-10.502-21.181s4.936-1.031 7.417-2.908c2.289-1.73 4.569-5.755 4.569-5.755l6.17 11.095 2.789 3.382 2.432 1.305 7.239 2.314 2.135 3.145 2.789 1.424h2.73l2.788-1.899 1.424-2.136 6.764-2.017 3.737-2.136 3.323-4.213 4.272-7.831s3.205 3.383 5.814 4.687c2.67 1.334 7.417 1.84 7.417 1.84l-10.443 21.299z" fill="#AD85AD"/><path class="fillCls3" d="M99.566 137.123H49.154c0 .604.49 1.094 1.094 1.094h48.224c.604 0 1.094-.49 1.094-1.094zm-31.83-46.864c-.06 0-.107-.012-.167-.024-.83-.25-1.602-.487-2.314-.688-8.353-2.492-8.769-2.884-14.844-13.979-4-7.321-12.21-24.8-18.808-38.85-4.32-9.185-8.034-17.123-9.078-18.974-1.163-2.065-1.946-2.302-2.124-2.207-.32.142-.617 1.305-.036 2.895 1.151 3.145 2.302 6.052 2.314 6.087a.549.549 0 0 1-.225.689.577.577 0 0 1-.724-.095c-1.661-1.828-3.323-3.797-4.782-5.542-2.54-3.038-5.72-6.811-6.586-6.621-.024 0-.095.083-.154.308-.143.534.961 2.065 2.254 3.845 1.14 1.566 2.552 3.524 4.07 6.016a.58.58 0 0 1-.118.736.562.562 0 0 1-.748-.024c-.142-.13-.403-.45-.996-1.175-5.435-6.645-7.322-7.772-7.95-7.57-.12.035-.25.344-.274.925-.012.309-.285.57-.593.546a.563.563 0 0 1-.546-.593c.036-1.092.392-1.745 1.044-1.97.95-.32 2.302.486 4.011 2.112-.997-1.436-1.483-2.385-1.258-3.18.214-.783.665-1.044 1.009-1.115 1.483-.32 3.667 2.183 7.701 7 .866 1.033 1.733 2.077 2.634 3.122a628.83 628.83 0 0 1-1.174-3.133c-.712-1.97-.451-3.833.629-4.331.617-.285 1.91-.309 3.595 2.693 1.068 1.887 4.616 9.458 9.113 19.046C39.197 50.246 47.397 67.7 51.384 74.987c6.028 11.012 6.182 11.06 14.168 13.432.712.214 1.483.44 2.314.7a.575.575 0 0 1 .38.712.518.518 0 0 1-.51.428z" fill="#201000"/><path class="fillCls3" d="M14.207 26.026a.588.588 0 0 1-.44-.201c-.035-.036-3.108-3.75-5.114-5.933-3.026-3.311-3.927-3.074-3.94-3.074 0 0-.237.226-.023 1.412a.567.567 0 1 1-1.115.214c-.095-.522-.404-2.136.628-2.646.38-.19 1.555-.772 5.293 3.322 2.017 2.207 5.114 5.933 5.15 5.98a.58.58 0 0 1-.072.808.677.677 0 0 1-.367.118z" fill="#201000"/><path class="fillCls3" d="M49.745 137.736a.58.58 0 0 1-.57-.534l-2.313-35.611c-2.006-3.857-9.398-19.034-16.542-33.724C24.541 56 19.083 44.799 17.576 41.844 14.24 35.33 7.644 26.834 5.59 24.377l-.546-.653c-1.673-1.993-2.693-3.204-2.527-4.248.047-.273.19-.64.64-.937 1.78-1.116 5.02 2.551 8.45 6.74.533.64 1.079 1.305 1.28 1.507.108.047.203.13.262.237a.567.567 0 0 1-.202.783c-.498.297-.629.143-2.219-1.791-3.904-4.759-6.253-6.942-6.965-6.491-.12.07-.12.118-.13.142-.084.522 1.114 1.958 2.277 3.334l.546.665c2.077 2.492 8.746 11.083 12.128 17.68 1.507 2.956 6.977 14.17 12.756 26.047 6.883 14.133 14.679 30.153 16.59 33.808a.5.5 0 0 1 .06.226l2.325 35.729a.57.57 0 0 1-.534.605c-.012-.023-.024-.023-.036-.023zM12.367 26.798s0 .012 0 0c0 .012 0 0 0 0zm.011 0s-.011 0 0 0c-.011 0 0 0 0 0zm.024-.012c-.012 0-.023.012-.035.012.023 0 .035-.012.035-.012zm8.092 4.521a.582.582 0 0 1-.557-.451c-.724-3.524 1.673-6.372 1.768-6.49a.577.577 0 0 1 .807-.06c.237.202.273.57.06.807-.025.024-2.137 2.551-1.52 5.518a.577.577 0 0 1-.439.676c-.035-.012-.071 0-.119 0z" fill="#201000"/><path class="fillCls3" d="M37.25 80.849a.562.562 0 0 1-.558-.475.575.575 0 0 1 .475-.653c7.025-1.127 10.786-7.072 11.237-8.2a.564.564 0 0 1 .736-.32.564.564 0 0 1 .32.736c-.795 1.982-5.138 7.784-12.115 8.9-.036.012-.071.012-.095.012z" fill="#201000"/><path class="fillCls1" d="m102.808 78.31 7.635 2.561 19.523-40.39 4.383-7.292 9.99-12.898.321-1.288-.827-.651v-1.897l-.749-.282-.979-.308-.658-1.284h-1.223l-4.905 3.476 2.655-4.089-.338-1.346-1.361-.107-10.019 10.81 2.234-6.532-.984-1.845-1.76.413L97.281 73.94l5.527 4.37z" fill="#F7CCB9"/><path class="fillCls3" d="M79.126 90.828a.56.56 0 0 1-.546-.403.575.575 0 0 1 .38-.712l1.578-.475c8.793-2.658 9.517-2.872 15.723-14.228 3.987-7.274 12.187-24.74 18.773-38.767 4.497-9.588 8.057-17.158 9.125-19.045 1.685-3.002 2.978-2.979 3.595-2.694 1.08.499 1.353 2.35.629 4.331a125.124 125.124 0 0 1-1.175 3.133 196.5 196.5 0 0 0 2.635-3.12c4.046-4.83 6.218-7.322 7.701-7.002.344.071.795.332 1.008 1.116.214.795-.272 1.744-1.257 3.18 1.708-1.626 3.061-2.433 4.01-2.112.653.225 1.009.89 1.045 1.97a.571.571 0 0 1-.546.593.577.577 0 0 1-.593-.546c-.024-.582-.155-.89-.273-.926-.629-.213-2.516.926-7.951 7.571-.593.724-.854 1.044-.997 1.175a.575.575 0 0 1-.747.023.567.567 0 0 1-.119-.735c1.519-2.492 2.931-4.45 4.07-6.016 1.294-1.78 2.409-3.323 2.255-3.845-.059-.214-.131-.297-.154-.309-.878-.178-4.047 3.584-6.586 6.622-1.46 1.744-3.109 3.714-4.782 5.541a.562.562 0 0 1-.724.095.554.554 0 0 1-.226-.688c.012-.024 1.175-2.931 2.314-6.087.582-1.602.285-2.753-.035-2.896-.178-.083-.961.143-2.124 2.207-1.044 1.852-4.771 9.79-9.078 18.975-6.598 14.05-14.797 31.528-18.808 38.838-6.443 11.76-7.38 12.044-16.4 14.773l-1.577.475c-.036-.024-.095-.012-.143-.012z" fill="#201000"/><path class="fillCls3" d="M133.461 26.026a.608.608 0 0 1-.368-.13.578.578 0 0 1-.071-.807c.036-.036 3.133-3.762 5.15-5.98 3.738-4.095 4.901-3.513 5.292-3.323 1.033.51.736 2.124.629 2.646a.567.567 0 1 1-1.115-.214c.225-1.186-.012-1.412-.024-1.412s-.914-.249-3.939 3.074c-2.006 2.195-5.079 5.897-5.115 5.933a.545.545 0 0 1-.439.213z" fill="#201000"/><path class="fillCls3" d="M99.062 137.831h-.023a.563.563 0 0 1-.546-.594l1.174-35.836c0-.083.024-.166.06-.249 1.91-3.655 9.706-19.674 16.589-33.807 5.779-11.866 11.237-23.08 12.756-26.047 3.382-6.61 10.051-15.189 12.127-17.68l.558-.665c1.163-1.376 2.361-2.812 2.278-3.334 0-.024-.011-.072-.13-.143-.712-.45-3.062 1.733-6.966 6.491-1.59 1.934-1.72 2.089-2.219 1.792a.577.577 0 0 1 .06-1.02c.201-.19.747-.855 1.281-1.508 3.441-4.188 6.669-7.855 8.449-6.74.463.285.605.665.641.938.166 1.044-.855 2.243-2.528 4.248l-.546.653c-2.052 2.456-8.662 10.952-11.984 17.467-1.507 2.943-6.966 14.156-12.745 26.023-7.143 14.678-14.536 29.855-16.541 33.712l-1.175 35.705c0 .356-.261.594-.57.594zm36.24-111.033s0 .012 0 0c0 .012 0 0 0 0zm-.036-.012c.012 0 .024.012.036.012-.024 0-.024-.012-.036-.012zm-8.092 4.521c-.036 0-.071 0-.119-.012a.563.563 0 0 1-.439-.676c.617-2.967-1.495-5.494-1.519-5.518a.579.579 0 0 1 .06-.807.579.579 0 0 1 .807.06c.106.118 2.492 2.966 1.768 6.49a.581.581 0 0 1-.558.463z" fill="#201000"/><path class="fillCls3" d="M110.654 79.721c-3.749.617-8.448-1.697-12.886-6.384a.588.588 0 0 0-.261-.154 72.33 72.33 0 0 1-.534.973c4.165 4.39 8.626 6.8 12.447 6.8a8.54 8.54 0 0 0 1.246-.096l.416-1.044a.567.567 0 0 0-.428-.095zm-44.355 42.161a.545.545 0 0 1-.273-.071l-7.12-3.987a.578.578 0 0 1-.285-.463l-.854-13.955a.58.58 0 0 1 .154-.427.559.559 0 0 1 .416-.178h13.385c.32 0 .57.249.57.57v12.531c0 .154-.06.296-.167.403l-5.41 5.411a.614.614 0 0 1-.416.166zm-6.562-4.912 6.479 3.631 4.936-4.937V103.94H58.93l.807 13.03z" fill="#201000"/><path class="fillCls5" d="M70.485 103.584H59.718a1 1 0 0 0-.998 1.057l.682 12.035a1 1 0 0 0 .516.819l5.734 3.16a1 1 0 0 0 1.194-.173l4.35-4.405a.999.999 0 0 0 .289-.703v-10.79a1 1 0 0 0-1-1z" fill="#805F80"/><path class="fillCls1" d="M88.215 74.476c-.985 3.097-3.987 4.415-7.262 4.984l-1.827 10.787c-2.279 5.41-8.829 5.41-11.392-.57.107-1.84.997-10.276 1.116-12.637-2.99-1.424-4.842-6.55-4.842-6.55-5.553.284-11.107-2.279-9.967-7.975.806-4.034 4.77-4.497 7.665-3.82 1.187.284 2.195.759 2.73 1.257 0 0-.57-4.331 5.98-7.12 5.636-2.409 9.66-2.064 12.305 1.27.973 1.21 1.745 2.836 2.362 4.853 1.85 6.123 4.13 12.389 3.132 15.521z" fill="#F7CCB9"/><path class="fillCls3" d="M73.704 94.815c-2.753 0-5.174-1.827-6.49-4.9a.639.639 0 0 1-.048-.262c.047-.818.249-2.966.474-5.244.25-2.623.534-5.554.63-7.025-2.505-1.436-4.142-5.09-4.64-6.301-3.774.095-7.061-1.044-8.84-3.097-1.282-1.496-1.745-3.418-1.306-5.578.32-1.578 1.091-2.776 2.314-3.56 2.183-1.4 4.948-.96 6.04-.7.783.19 1.495.451 2.076.772.25-1.59 1.389-4.521 6.278-6.61 5.956-2.54 10.205-2.065 12.981 1.436 1.009 1.27 1.816 2.92 2.468 5.043.261.878.534 1.745.807 2.623 1.662 5.34 3.24 10.395 2.326 13.242-.89 2.789-3.275 4.522-7.31 5.305l-1.768 10.395c-.011.047-.023.083-.035.13-1.14 2.706-3.358 4.331-5.933 4.343-.012-.012-.024-.012-.024-.012zm-5.4-5.233c1.14 2.563 3.145 4.094 5.4 4.094h.012c2.076-.012 3.892-1.34 4.853-3.584l1.816-10.715a.554.554 0 0 1 .462-.462c3.81-.665 6.04-2.172 6.824-4.593.795-2.515-.796-7.618-2.326-12.566a218.79 218.79 0 0 1-.807-2.623c-.593-1.958-1.353-3.524-2.267-4.663-2.444-3.097-6.146-3.441-11.64-1.104-6.088 2.587-5.649 6.48-5.637 6.527a.575.575 0 0 1-.297.581.597.597 0 0 1-.652-.083c-.475-.439-1.424-.866-2.48-1.115-1.97-.463-3.892-.261-5.162.546-.95.605-1.555 1.554-1.816 2.824-.368 1.827-.012 3.382 1.056 4.604 1.59 1.84 4.783 2.872 8.33 2.694a.588.588 0 0 1 .57.38c.024.047 1.804 4.924 4.557 6.23a.55.55 0 0 1 .32.545c-.071 1.329-.38 4.58-.652 7.44-.202 2.124-.404 4.153-.463 5.043z" fill="#201000"/><path class="fillCls3" d="M82.093 67.784a.638.638 0 0 1-.249-.06.573.573 0 0 1-.273-.759c1.127-2.373.143-4.747-3.75-9.066a.577.577 0 0 1 .036-.807.577.577 0 0 1 .807.036c3.667 4.058 5.482 7.049 3.94 10.312a.534.534 0 0 1-.51.344zm-10.442-6.693a.712.712 0 1 0 0-1.424.712.712 0 0 0 0 1.424zm10.584-2.278a.712.712 0 1 0 0-1.424.712.712 0 0 0 0 1.424zm-10.36-2.243c-.166-.285-.498-.344-.783-.202-.285.143-.57.285-.854.416-.273.13-.356.534-.202.783.166.285.498.344.783.202.285-.143.57-.285.854-.416.273-.13.356-.534.202-.783zm9.221-2.741h-.712c-.736 0-.736 1.14 0 1.14h.712c.736 0 .736-1.14 0-1.14zM63.581 66.218a.561.561 0 0 1-.51-.32c-.451-.915-2.8-2.92-4.652-2.54a.585.585 0 0 1-.676-.451.585.585 0 0 1 .45-.677c2.398-.474 5.222 1.804 5.898 3.157a.564.564 0 0 1-.249.76.459.459 0 0 1-.261.07z" fill="#201000"/><path class="fillCls12" d="M84.549 71.866a1.15 1.15 0 0 1-1.115-.89 1.142 1.142 0 0 1 .854-1.365c.225-.047 23.092-5.22 28.633-6.526.546-.13 1.223-.38 1.353-.866.142-.534-.285-1.448-.997-2.113-.605-.57-1.139-.712-1.246-.664 0 0-.023.035-.059.095a7.5 7.5 0 0 0-.309.771.25.25 0 0 1 .072-.024 1.146 1.146 0 0 1 1.483.641 1.137 1.137 0 0 1-.641 1.483c-.296.12-1.851.677-2.788-.32-.926-.985-.38-2.48.118-3.524.522-1.092 1.59-1.602 2.789-1.33 1.78.392 3.868 2.552 3.88 4.747 0 .783-.297 2.67-3.144 3.335-5.554 1.305-28.42 6.479-28.657 6.526-.06.012-.143.024-.226.024z" fill="#F76567"/><path class="fillCls3" d="M83.683 73.16a.605.605 0 0 1-.367-.131.578.578 0 0 1-.072-.807c.095-.119.914-1.282-1.068-2.895a.569.569 0 0 1-.083-.808.58.58 0 0 1 .807-.083c1.044.855 1.626 1.769 1.709 2.718.095 1.044-.439 1.72-.498 1.792a.523.523 0 0 1-.428.213z" fill="#201000"/><path class="fillCls7" d="m109.896 95.202 2.848 5.126-3.417 1.139-2.848-4.841 3.417-1.424z" fill="#FFDF57" style="animation:celebrate1-confetti 5s 800ms linear infinite;transform:translate3d(0,-140px,0)"/><path class="fillCls6" d="m124.99 89.404 5.981 7.974 2.563-3.417-4.841-6.835-3.703 2.278z" fill="#853EF3" style="animation:celebrate1-confetti 5s 600ms linear infinite;transform:translate3d(0,-140px,0)"/><path class="fillCls6" d="m33.826 63.892-5.98 7.974-2.564-3.418 4.842-6.835 3.702 2.279z" fill="#853EF3" style="animation:celebrate1-confetti 5s 900ms linear infinite;transform:translate3d(0,-140px,0)"/><path class="fillCls7" d="m145.221 51.503-4.272 3.145 3.133 2.848 3.417-3.987-2.278-2.006z" fill="#FFDF57" style="animation:celebrate1-confetti 5s 2400ms linear infinite;transform:translate3d(0,-140px,0)"/><path class="fillCls6" d="m33.404 17.328 3.43 2.564 2.278-1.994-4.284-3.702-1.424 3.132z" fill="#853EF3" style="animation:celebrate1-confetti 5s 2800ms linear infinite;transform:translate3d(0,-140px,0)"/><path class="fillCls2" d="M82.213 45.392c3.91 2.737.819 10.164.819 10.164s-1.662-3.259-6.007-3.656c-2.8-.257-6.885 1.774-6.885 1.774s.744 2.164-1.37 4.5c-1.182 1.545-2.255 2.312-4.188 2.53-.783 0-3.4-1.73-5.179-1.633-2.572.142-4.495.892-4.902 4.628-.233 3.096 2.31 5.05 5.367 5.874.523.14 1.067.23 1.589.283 1.738.18 3.294 1.237 4.16 2.754.164.287.384.63.614.973.47.7-.045 1.617-.862 1.41-.53-.134-1.053-.325-1.425-.597-1.204-.88-1.849-3.341-1.849-3.341h-.462v1.777s-.32 1.884-1.883 3.341c-1.944 1.812-6.078 2.954-6.078 2.954s-1.097-1.927-1.781-3.181c-.685-1.255-1.725-3.245-1.725-3.245s2.251-4.452 2.582-7.653c.462-4.479-.747-7.535 1.279-10.379 1.314-1.843 1.964-3.374 4.223-3.513 4.369-.268 4.078 1.484 5.694 1.375 1.616-.108 2.172-3.562 5.431-5.5 3.851-2.29 10.402-3.519 12.838-1.639z" fill="#440303"/><path class="fillCls8" d="m45.263 34.961 1.668 4.506-1.668 1.129-1.901-4.625 1.9-1.01z" fill="#57DDEF" style="animation:celebrate1-confetti 5s 4000ms linear infinite;transform:translate3d(0,-140px,0)"/><path class="fillCls8" d="m138.312 49.36-1.292-4.628-2.013.064 1.174 4.86 2.131-.297z" fill="#57DDEF" style="animation:celebrate1-confetti 5s 4800ms linear infinite;transform:translate3d(0,-140px,0)"/></svg>